<?xml version="1.0" encoding="utf-8"?>
<!-- Generator: Adobe Illustrator 26.0.2, SVG Export Plug-In . SVG Version: 6.00 Build 0)  -->
<svg version="1.1" id="Layer_1" xmlns="http://www.w3.org/2000/svg" xmlns:xlink="http://www.w3.org/1999/xlink" x="0px" y="0px"
	 viewBox="0 0 959.93 182.77" style="enable-background:new 0 0 959.93 182.77;" xml:space="preserve">
<style type="text/css">
	.st0{fill:#1B2535;}
	.st1{fill:#62BA6A;}
</style>
<g>
	<g>
		<path class="st0" d="M235.65,1.01v33.87h-16.99l-2.94-16.24h-19.16v17h3.58l1.79-8.69h12.52v33.75h-12.52L200.13,52h-3.58v17h6.26
			v17.63h-43.56V69h4.98V18.64h-4.98V1.01H235.65z"/>
		<path class="st0" d="M281.06,0c6.39,0,12.26,0.82,17.59,2.46c5.33,1.64,9.91,4.24,13.75,7.81c3.84,3.57,6.82,8.12,8.95,13.66
			s3.2,12.21,3.2,20.02c0,7.81-1.07,14.46-3.2,19.96c-2.13,5.5-5.12,10.01-8.95,13.54c-3.84,3.53-8.42,6.11-13.75,7.74
			c-5.33,1.64-11.2,2.45-17.59,2.45c-6.4,0-12.24-0.82-17.53-2.45c-5.29-1.64-9.85-4.22-13.69-7.74c-3.84-3.53-6.8-8.04-8.89-13.54
			c-2.09-5.5-3.13-12.15-3.13-19.96c0-7.81,1.07-14.48,3.2-20.02s5.12-10.09,8.96-13.66c3.84-3.57,8.4-6.17,13.69-7.81
			C268.95,0.82,274.75,0,281.06,0z M281.19,69c1.46,0,2.74-0.44,3.86-1.32c1.11-0.88,2.06-2.31,2.83-4.28
			c0.77-1.97,1.35-4.55,1.74-7.74c0.39-3.19,0.58-7.13,0.58-11.84c0-9.32-0.77-15.86-2.32-19.64c-1.54-3.78-3.77-5.67-6.69-5.67
			c-2.92,0-5.15,1.89-6.69,5.67c-1.54,3.78-2.32,10.33-2.32,19.64c0,4.7,0.19,8.65,0.58,11.84c0.39,3.19,0.96,5.77,1.74,7.74
			c0.77,1.97,1.71,3.4,2.83,4.28C278.44,68.56,279.73,69,281.19,69z"/>
		<path class="st0" d="M413.33,69v17.63h-39.09V69c0-5.96-0.68-10.18-2.04-12.66c-1.36-2.47-3.96-3.71-7.79-3.71V69h5.62v17.63
			h-43.56V69h5.62V18.51h-5.62V1.01h48.67c10.81,0,18.97,2.23,24.46,6.67c5.49,4.45,8.24,10.49,8.24,18.13
			c0,5.12-1.11,9.26-3.32,12.4c-2.22,3.15-5.24,5.81-9.07,8c2.13,0.84,3.98,2.08,5.56,3.71c1.57,1.64,2.89,3.48,3.96,5.54
			c1.06,2.06,1.87,4.26,2.43,6.61c0.55,2.35,0.83,4.66,0.83,6.93H413.33z M370.03,35.13c0.94,0,1.79-0.82,2.55-2.46
			c0.77-1.64,1.15-3.67,1.15-6.11c0-1.93-0.38-3.76-1.15-5.48c-0.77-1.72-1.87-2.58-3.32-2.58h-4.85v16.62H370.03z"/>
		<path class="st0" d="M454.85,18.64v17h3.58l1.79-8.69h12.52v33.75h-12.52L458.42,52h-3.58v17h19.16l2.94-16.24h16.99v33.87h-76.39
			V69h4.98V18.64h-4.98V1.01h76.39v33.87h-16.99l-2.94-16.24H454.85z"/>
		<path class="st0" d="M536.09,69h5.62v17.63h-43.56V69h5.62V18.64h-5.62V1.01h43.56v17.63h-5.62V69z"/>
		<path class="st0" d="M584.76,40.55h35.64V78.7c-6.9,3.27-13.05,5.58-18.46,6.93c-5.41,1.34-10.41,2.01-15.01,2.01
			c-6.39,0-12.22-0.82-17.5-2.45c-5.28-1.64-9.82-4.22-13.6-7.74c-3.79-3.53-6.73-8.04-8.81-13.54c-2.09-5.5-3.13-12.15-3.13-19.96
			c0-7.81,1.06-14.48,3.19-20.02c2.13-5.54,5.11-10.09,8.94-13.66c3.83-3.57,8.37-6.17,13.6-7.81C574.86,0.82,580.63,0,586.93,0
			c5.11,0,10.41,0.82,15.9,2.46c5.49,1.64,10.88,4.34,16.16,8.12l-3.32,24.3h-22.48V20.02c-0.94-0.42-1.92-0.78-2.94-1.07
			c-1.02-0.29-2.13-0.44-3.32-0.44c-2.98,0-5.32,1.89-7.03,5.67c-1.7,3.78-2.56,10.33-2.56,19.64c0,4.7,0.21,8.65,0.64,11.84
			c0.43,3.19,1.06,5.77,1.92,7.74c0.85,1.97,1.89,3.4,3.13,4.28s2.62,1.32,4.15,1.32c0.08,0,0.53,0,1.34,0
			c0.81,0,1.43-0.08,1.85-0.25V58.17h-5.62V40.55z"/>
		<path class="st0" d="M712.63,1.01v17.63h-5.62v68h-24.4l-26.19-35.76V69h5.62v17.63h-36.02V69h5.62V18.64h-5.62V1.01h30.4
			l25.93,35.64V18.64h-5.62V1.01H712.63z"/>
		<path class="st0" d="M754.14,18.64v17h3.58l1.79-8.69h12.52v33.75h-12.52L757.72,52h-3.58v17h19.16l2.94-16.24h16.99v33.87h-76.39
			V69h4.98V18.64h-4.98V1.01h76.39v33.87h-16.99l-2.94-16.24H754.14z"/>
		<path class="st0" d="M884.31,69v17.63h-39.09V69c0-5.96-0.68-10.18-2.04-12.66c-1.36-2.47-3.96-3.71-7.79-3.71V69h5.62v17.63
			h-43.56V69h5.62V18.51h-5.62V1.01h48.67c10.81,0,18.97,2.23,24.46,6.67c5.49,4.45,8.24,10.49,8.24,18.13
			c0,5.12-1.11,9.26-3.32,12.4c-2.22,3.15-5.24,5.81-9.07,8c2.13,0.84,3.98,2.08,5.56,3.71c1.57,1.64,2.89,3.48,3.96,5.54
			c1.06,2.06,1.87,4.26,2.43,6.61c0.55,2.35,0.83,4.66,0.83,6.93H884.31z M841.01,35.13c0.94,0,1.79-0.82,2.56-2.46
			s1.15-3.67,1.15-6.11c0-1.93-0.38-3.76-1.15-5.48c-0.77-1.72-1.88-2.58-3.32-2.58h-4.85v16.62H841.01z"/>
		<path class="st0" d="M952.52,31.1h-20.44V20.4c-0.51-0.25-1.07-0.54-1.66-0.88c-0.51-0.17-1.07-0.36-1.66-0.57
			c-0.6-0.21-1.24-0.32-1.92-0.32c-1.02,0-2.07,0.5-3.13,1.51c-1.07,1.01-1.6,2.35-1.6,4.03c0,0.92,0.17,1.76,0.51,2.52
			c0.43,1.18,1.64,2.25,3.64,3.21c2,0.97,4.39,2.02,7.15,3.15c2.77,1.13,5.7,2.41,8.81,3.84c3.11,1.43,5.98,3.15,8.62,5.16
			c2.64,2.02,4.81,4.45,6.51,7.3c1.7,2.85,2.56,6.21,2.56,10.07c0,6.21-1.17,11.17-3.51,14.86c-2.34,3.69-5.32,6.53-8.94,8.5
			c-3.62,1.97-7.67,3.28-12.14,3.9c-4.47,0.63-8.84,0.94-13.09,0.94c-4.43,0-8.65-0.29-12.65-0.88c-4-0.59-7.49-1.22-10.47-1.89
			c-3.49-0.84-6.77-1.8-9.84-2.9V56.79h23.12l3.32,10.95c0.43,0.25,0.9,0.46,1.41,0.63c1.02,0.42,2.04,0.63,3.07,0.63
			c0.94,0,1.92-0.36,2.94-1.07c1.02-0.71,1.53-1.83,1.53-3.34c0-1.01-0.3-2.14-0.89-3.4c-0.51-1.09-1.75-2.08-3.71-2.96
			c-1.96-0.88-4.28-1.87-6.96-2.96c-2.68-1.09-5.49-2.33-8.43-3.72c-2.94-1.39-5.67-3.13-8.18-5.23c-2.51-2.1-4.58-4.64-6.2-7.62
			c-1.62-2.98-2.43-6.57-2.43-10.77c0-5.54,1.13-10.11,3.39-13.73c2.26-3.61,5.13-6.46,8.62-8.56c3.49-2.1,7.41-3.57,11.75-4.41
			c4.34-0.84,8.64-1.26,12.9-1.26c4.34,0,8.54,0.38,12.58,1.13c4.04,0.76,7.68,1.6,10.92,2.52c3.66,1.01,7.15,2.18,10.47,3.53
			L952.52,31.1z"/>
		<path class="st1" d="M230.54,147.9v33.87h-71.28v-17.63h5.62v-50.37h-5.62V96.14h43.56v17.63h-5.62v50.37h13.41l2.94-16.24H230.54
			z"/>
		<path class="st1" d="M317.4,96.14v17.63h-5.62v38.91c0,4.95-0.64,9.32-1.92,13.1c-1.28,3.78-3.34,6.93-6.2,9.44
			c-2.85,2.52-6.62,4.41-11.3,5.67c-4.68,1.26-10.43,1.89-17.24,1.89c-6.73,0-12.54-0.55-17.44-1.64c-4.9-1.09-8.94-2.81-12.14-5.16
			c-3.19-2.35-5.56-5.39-7.09-9.13c-1.53-3.73-2.3-8.25-2.3-13.54v-39.54h-5.62V96.14h43.56v17.63h-5.62v43.44
			c0,2.44,0.77,4.2,2.3,5.29c1.53,1.09,3.36,1.64,5.49,1.64c2.13,0,3.94-0.55,5.43-1.64c1.49-1.09,2.24-2.85,2.24-5.29v-43.44h-5.62
			V96.14H317.4z"/>
		<path class="st1" d="M389.32,135.43c3.15,1.26,5.68,2.69,7.6,4.28c1.92,1.59,3.4,3.32,4.47,5.16c1.06,1.85,1.77,3.76,2.11,5.73
			c0.34,1.97,0.51,3.97,0.51,5.98c0,3.61-0.64,6.95-1.92,10.01c-1.28,3.06-3.3,5.73-6.07,7.99c-2.77,2.27-6.3,4.03-10.6,5.29
			c-4.3,1.26-9.47,1.89-15.52,1.89h-48.29v-17.63h5.62v-50.49h-5.62v-17.5h48.41c10.3,0,17.84,1.97,22.61,5.92
			c4.77,3.95,7.15,9.49,7.15,16.62c0,2.77-0.68,5.56-2.04,8.37C396.39,129.87,393.57,132.66,389.32,135.43z M359.55,128.76h5.62
			c0.94,0,1.79-0.69,2.55-2.08c0.77-1.39,1.15-3.29,1.15-5.73c0-1.93-0.38-3.63-1.15-5.1c-0.77-1.47-1.87-2.2-3.32-2.2h-4.85V128.76
			z M364.03,164.14c2.47,0,4.24-0.9,5.3-2.71c1.06-1.8,1.6-3.97,1.6-6.48c0-2.6-0.6-4.68-1.79-6.23c-1.19-1.55-2.9-2.33-5.11-2.33
			h-4.47v17.76H364.03z"/>
		<path class="st1" d="M479.63,147.9v33.87h-71.28v-17.63h5.62v-50.37h-5.62V96.14h43.56v17.63h-5.62v50.37h13.41l2.94-16.24H479.63
			z"/>
		<path class="st1" d="M521.14,164.14h5.62v17.63H483.2v-17.63h5.62v-50.37h-5.62V96.14h43.56v17.63h-5.62V164.14z"/>
		<path class="st1" d="M617.59,96.14v17.63h-5.62v68h-24.4l-26.19-35.76v18.13H567v17.63h-36.02v-17.63h5.62v-50.37h-5.62V96.14
			h30.4l25.93,35.64v-18.01h-5.62V96.14H617.59z"/>
	</g>
	<g>
		<path class="st1" d="M30.53,73.57"/>
		<path class="st1" d="M107.15,181.75c-3.69-1.35-2.78-4.61-2.96-7.56c-1.22,0-2.34,0.04-3.46-0.01c-2.62-0.12-4.15-1.57-4.16-4.18
			c-0.04-11.71-0.04-23.41,0-35.12c0.01-2.67,1.6-4.15,4.29-4.23c1.18-0.03,2.36-0.01,3.75-0.01c0-0.69,0-1.26,0-1.83
			c0-5.07-0.01-10.14,0-15.21c0.01-3.35,1.37-4.73,4.7-4.74c5.34-0.01,10.68-0.01,16.02,0c3.27,0.01,4.63,1.34,4.64,4.61
			c0.03,5.07,0.01,10.14,0.01,15.21c0,0.58,0,1.17,0,1.96c1.26,0,2.37-0.01,3.49,0c3.01,0.04,4.53,1.48,4.53,4.45
			c0.02,11.54,0.02,23.09,0,34.63c-0.01,3-1.48,4.41-4.51,4.47c-0.96,0.02-1.92,0-3.04,0c-0.21,2.88,0.66,6.14-2.92,7.55
			c-0.65,0-1.29,0-1.94,0c-3.9-1.24-2.75-4.68-3.03-7.45c-3.6,0-7.01,0-10.54,0c-0.14,2.87,0.75,6.11-2.94,7.45
			C108.45,181.75,107.8,181.75,107.15,181.75z M122.15,116.72c-3.31,0-6.46,0-9.69,0c0,4.64,0,9.18,0,13.79c3.27,0,6.44,0,9.69,0
			C122.15,125.89,122.15,121.39,122.15,116.72z"/>
	</g>
	<g>
		<path class="st1" d="M58.79,134.37c2.95,0,5.34,2.39,5.34,5.34c0,0,0,28.27,0,28.38c0,3.88,0.49,7.8,3.51,10.54
			c8.31,7.52,19.12,0.44,19.12-9.55c0-28.27,0-56.55,0-84.82c0-8.18,4.56-15.69,11.82-19.46c5.79-2.99,11-6.94,15.19-11.94
			c4.6-5.49,3.97-12.07-1.24-17.48c-4.13-4.28-11.04-4.63-16.3-0.76c-1.04,0.76-1.85,1.82-2.84,2.66
			c-14.19,12-30.29,16.62-48.48,11.82c-8.15-2.15-15.25-6.35-21.46-11.5c-3.56-2.95-8.13-4.53-12.74-4.19
			c-3.59,0.27-7.55,3.36-9.23,6.29c-3.57,6.22-0.25,12.43,5.1,17.2l17.03,11.79l0.1,0.06c4.52,2.93,7.24,7.95,7.24,13.34
			c0,25.65-0.2,76.96-0.2,76.96s-0.44,9.69,0.52,14.12c1.05,4.82,5.18,7.97,10.03,8.24c6.59,0.36,12.12-4.49,12.13-11.17
			c0.02-9.69,0.01-20.5,0.01-30.53C53.45,136.75,55.84,134.37,58.79,134.37z"/>
		<circle class="st1" cx="58.44" cy="20.29" r="20.29"/>
	</g>
</g>
</svg>
