<svg width="1440" height="191" viewBox="0 0 1440 191" fill="none" xmlns="http://www.w3.org/2000/svg">
<g clip-path="url(#clip0_1_50)">
<path d="M-11.2117 126.974L1450.05 0.888781L1474.29 281.845L13.0305 407.93L-11.2117 126.974Z" fill="#F2F1EF"/>
<path d="M-461.553 -104.168L5588.48 -626.194L5623.55 -219.705L-426.479 302.321L-461.553 -104.168Z" fill="#161513"/>
<g clip-path="url(#clip1_1_50)">
<path d="M178.248 136.723L180.318 143.578L186.046 139.137L182.57 145.437L189.805 146.264L182.819 148.319L187.323 153.931L180.919 150.537L180.053 157.645L177.983 150.79L172.254 155.231L175.731 148.931L168.495 148.103L175.482 146.048L170.978 140.437L177.382 143.831L178.248 136.723Z" fill="#E94D35"/>
</g>
<g clip-path="url(#clip2_1_50)">
<path d="M636.079 99.2262L638.149 106.081L643.878 101.64L640.401 107.94L647.637 108.768L640.65 110.823L645.154 116.434L638.75 113.04L637.884 120.148L635.814 113.293L630.086 117.735L633.562 111.434L626.327 110.607L633.314 108.552L628.809 102.94L635.214 106.335L636.079 99.2262Z" fill="#E94D35"/>
</g>
<path d="M28.6585 167.697C28.2878 167.729 27.9921 167.652 27.7713 167.466C27.5506 167.281 27.4242 167.002 27.3922 166.632L26.4096 155.244L31.6103 154.795C32.495 154.719 33.2871 154.825 33.9865 155.114C34.6849 155.391 35.2468 155.831 35.6721 156.432C36.0963 157.022 36.3435 157.723 36.4137 158.536L36.7541 162.482C36.881 163.952 36.6068 165.102 35.9316 165.931C35.2553 166.748 34.1999 167.219 32.7652 167.342L28.6585 167.697ZM32.6272 166.162C33.6434 166.074 34.3849 165.733 34.8515 165.139C35.3291 164.532 35.5209 163.684 35.427 162.596L35.0866 158.651C35.0113 157.778 34.6575 157.098 34.0253 156.61C33.404 156.11 32.6211 155.901 31.6766 155.982L27.8388 156.313L28.7177 166.499L32.6272 166.162ZM40.7425 166.654C40.3718 166.686 40.0761 166.609 39.8554 166.424C39.6335 166.226 39.5066 165.942 39.4747 165.571L38.4936 154.201L46.9223 153.474L47.0213 154.622L39.9197 155.235L40.3004 159.646L46.864 159.08L46.963 160.228L40.3994 160.794L40.8048 165.493L47.9064 164.88L48.0055 166.027L40.7425 166.654ZM54.5262 165.465C54.2991 165.484 54.1021 165.435 53.9353 165.317C53.7805 165.198 53.6369 165 53.5046 164.722L48.2065 153.363L49.5694 153.246L54.4244 163.866L54.4423 163.864L57.4243 152.568L58.7872 152.45L55.2077 165.406L54.5262 165.465ZM62.8614 164.746C62.4908 164.778 62.1951 164.701 61.9743 164.515C61.7525 164.317 61.6256 164.033 61.5937 163.663L60.6126 152.293L69.0413 151.566L69.1403 152.713L62.0387 153.326L62.4194 157.738L68.983 157.171L69.082 158.319L62.5184 158.885L62.9238 163.584L70.0254 162.971L70.1245 164.119L62.8614 164.746ZM73.6145 163.818C73.2438 163.85 72.9481 163.773 72.7274 163.587C72.5066 163.402 72.3802 163.123 72.3482 162.753L71.3656 151.365L72.6927 151.251L73.6737 162.62L80.4884 162.032L80.5905 163.216L73.6145 163.818ZM85.861 162.906C85.0361 162.977 84.2908 162.854 83.6252 162.539C82.9596 162.223 82.418 161.739 82.0006 161.089C81.5951 160.437 81.3536 159.663 81.2762 158.766L80.9451 154.929C80.8677 154.032 80.973 153.228 81.2609 152.517C81.5608 151.804 82.0116 151.235 82.6132 150.81C83.2149 150.385 83.9342 150.136 84.7711 150.064L86.672 149.9C87.5089 149.828 88.2601 149.949 88.9258 150.265C89.5914 150.581 90.127 151.065 90.5325 151.717C90.9499 152.367 91.1974 153.141 91.2747 154.037L91.6059 157.875C91.6832 158.772 91.572 159.576 91.2721 160.289C90.9832 160.988 90.5324 161.557 89.9198 161.995C89.3181 162.421 88.6048 162.669 87.7799 162.74L85.861 162.906ZM87.6419 161.56C88.5147 161.484 89.1937 161.119 89.6791 160.462C90.1645 159.806 90.3644 158.982 90.2788 157.99L89.9477 154.152C89.862 153.16 89.5239 152.382 88.9333 151.819C88.3427 151.255 87.611 151.011 86.7382 151.086L84.909 151.244C84.0363 151.32 83.3572 151.685 82.8718 152.342C82.3864 152.998 82.1866 153.822 82.2722 154.814L82.6033 158.652C82.6889 159.644 83.0211 160.423 83.5997 160.987C84.1903 161.55 84.922 161.794 85.7948 161.719L87.6419 161.56ZM93.4146 149.463L99.494 148.938C100.427 148.858 101.196 149.056 101.804 149.534C102.423 150.01 102.77 150.679 102.844 151.54L103.003 153.387C103.083 154.307 102.842 155.081 102.282 155.707C101.721 156.322 100.944 156.672 99.9519 156.758L95.4147 157.149L95.8248 161.901L94.4977 162.016L93.4146 149.463ZM99.8139 155.577C100.424 155.524 100.899 155.309 101.24 154.93C101.579 154.539 101.724 154.051 101.673 153.465L101.514 151.618C101.472 151.128 101.27 150.748 100.91 150.478C100.56 150.195 100.11 150.077 99.5602 150.125L94.8438 150.532L95.3126 155.965L99.8139 155.577ZM104.605 148.497L105.879 148.387L111.082 156.339L114.72 147.624L115.993 147.514L117.076 160.068L115.767 160.181L114.897 150.102L111.869 157.301C111.758 157.552 111.659 157.729 111.572 157.833C111.483 157.925 111.379 157.976 111.26 157.986L110.865 158.02L106.128 150.859L106.998 160.937L105.689 161.05L104.605 148.497ZM121.11 159.72C120.739 159.752 120.444 159.675 120.223 159.489C120.001 159.291 119.874 159.007 119.842 158.637L118.861 147.267L127.29 146.54L127.389 147.687L120.287 148.3L120.668 152.712L127.231 152.145L127.33 153.293L120.767 153.859L121.172 158.558L128.274 157.945L128.373 159.093L121.11 159.72ZM129.614 146.339L130.869 146.231L138.73 156.086L137.828 145.63L139.119 145.519L140.202 158.072L138.947 158.181L131.092 148.398L131.988 158.781L130.697 158.892L129.614 146.339ZM145.179 146.152L141.198 146.496L141.099 145.348L150.389 144.547L150.488 145.694L146.506 146.038L147.491 157.443L146.163 157.558L145.179 146.152Z" fill="white"/>
<path d="M453.626 118.382L459.705 117.857C460.638 117.777 461.408 117.975 462.015 118.453C462.634 118.929 462.981 119.598 463.055 120.459L463.215 122.306C463.294 123.227 463.054 124 462.494 124.627C461.932 125.241 461.156 125.591 460.163 125.677L455.626 126.068L456.036 130.821L454.709 130.935L453.626 118.382ZM460.025 124.496C460.635 124.444 461.11 124.228 461.451 123.849C461.791 123.459 461.935 122.97 461.885 122.385L461.725 120.538C461.683 120.047 461.482 119.667 461.121 119.397C460.771 119.114 460.322 118.996 459.772 119.044L455.055 119.451L455.524 124.885L460.025 124.496ZM464.817 117.416L470.914 116.89C471.835 116.811 472.593 117.01 473.188 117.489C473.794 117.954 474.134 118.612 474.207 119.461L474.32 120.77C474.375 121.403 474.22 121.983 473.856 122.508C473.491 123.021 472.976 123.409 472.312 123.671L472.314 123.689C472.689 123.849 473.038 124.126 473.361 124.52C473.696 124.913 473.964 125.365 474.165 125.878L475.441 129.146L474.078 129.264L472.802 125.996C472.584 125.424 472.25 124.977 471.801 124.655C471.364 124.331 470.9 124.19 470.41 124.233L466.769 124.547L467.227 129.855L465.9 129.97L464.817 117.416ZM470.971 122.992C471.629 122.935 472.14 122.716 472.504 122.336C472.88 121.942 473.043 121.458 472.993 120.884L472.874 119.503C472.833 119.025 472.638 118.656 472.291 118.397C471.943 118.138 471.507 118.031 470.98 118.077L466.246 118.485L466.667 123.363L470.971 122.992ZM481.344 128.782C480.519 128.853 479.774 128.73 479.108 128.414C478.442 128.098 477.901 127.615 477.483 126.965C477.078 126.313 476.836 125.539 476.759 124.642L476.428 120.805C476.35 119.908 476.456 119.104 476.744 118.393C477.044 117.68 477.494 117.111 478.096 116.686C478.698 116.261 479.417 116.012 480.254 115.94L482.155 115.776C482.992 115.703 483.743 115.825 484.408 116.141C485.074 116.457 485.61 116.941 486.015 117.593C486.433 118.243 486.68 119.017 486.757 119.913L487.089 123.751C487.166 124.648 487.055 125.452 486.755 126.165C486.466 126.864 486.015 127.433 485.403 127.871C484.801 128.297 484.088 128.545 483.263 128.616L481.344 128.782ZM483.125 127.435C483.997 127.36 484.676 126.994 485.162 126.338C485.647 125.682 485.847 124.858 485.762 123.866L485.43 120.028C485.345 119.036 485.007 118.258 484.416 117.694C483.825 117.131 483.094 116.887 482.221 116.962L480.392 117.12C479.519 117.196 478.84 117.561 478.355 118.217C477.869 118.874 477.669 119.698 477.755 120.69L478.086 124.528C478.172 125.52 478.504 126.298 479.082 126.863C479.673 127.426 480.405 127.67 481.278 127.595L483.125 127.435ZM491.146 127.791C490.776 127.823 490.48 127.746 490.259 127.561C490.038 127.375 489.912 127.097 489.88 126.726L488.897 115.338L494.098 114.89C494.983 114.813 495.775 114.92 496.474 115.209C497.173 115.486 497.734 115.925 498.16 116.527C498.584 117.116 498.831 117.818 498.901 118.631L499.242 122.576C499.369 124.046 499.094 125.196 498.419 126.025C497.743 126.843 496.688 127.313 495.253 127.437L491.146 127.791ZM495.115 126.256C496.131 126.169 496.873 125.828 497.339 125.233C497.817 124.626 498.009 123.778 497.915 122.69L497.574 118.745C497.499 117.872 497.145 117.192 496.513 116.705C495.892 116.204 495.109 115.995 494.164 116.076L490.326 116.408L491.205 126.594L495.115 126.256ZM505.879 126.665C505.114 126.731 504.424 126.621 503.809 126.337C503.193 126.041 502.697 125.596 502.321 125.002C501.943 124.396 501.719 123.687 501.649 122.874L500.91 114.302L502.237 114.187L502.979 122.795C503.055 123.668 503.349 124.353 503.861 124.851C504.373 125.337 505.011 125.547 505.777 125.481L507.713 125.314C508.479 125.248 509.072 124.932 509.492 124.365C509.912 123.787 510.085 123.062 510.009 122.189L509.267 113.581L510.594 113.466L511.333 122.039C511.403 122.852 511.304 123.589 511.036 124.25C510.767 124.9 510.355 125.423 509.799 125.82C509.242 126.206 508.581 126.431 507.816 126.497L505.879 126.665ZM518.206 125.601C517.405 125.67 516.677 125.54 516.022 125.211C515.379 124.881 514.855 124.39 514.45 123.739C514.055 123.074 513.819 122.294 513.742 121.397L513.42 117.667C513.343 116.77 513.441 115.961 513.716 115.238C514.003 114.515 514.442 113.941 515.031 113.517C515.632 113.08 516.345 112.826 517.17 112.754L519.071 112.59C519.848 112.523 520.544 112.632 521.158 112.916C521.785 113.199 522.286 113.632 522.661 114.214C523.049 114.795 523.276 115.48 523.345 116.269L522.053 116.38C521.98 115.531 521.676 114.871 521.142 114.399C520.618 113.914 519.962 113.706 519.173 113.774L517.272 113.938C516.423 114.011 515.768 114.381 515.308 115.047C514.846 115.701 514.659 116.536 514.747 117.552L515.069 121.283C515.157 122.299 515.478 123.096 516.034 123.674C516.589 124.241 517.279 124.488 518.104 124.417L520.04 124.25C520.853 124.18 521.48 123.837 521.921 123.221C522.374 122.604 522.56 121.829 522.479 120.896L523.77 120.785C523.844 121.634 523.741 122.401 523.463 123.088C523.184 123.762 522.755 124.305 522.176 124.716C521.61 125.127 520.932 125.366 520.143 125.434L518.206 125.601ZM528.21 113.103L524.229 113.446L524.13 112.298L533.42 111.497L533.519 112.645L529.537 112.988L530.522 124.394L529.194 124.508L528.21 113.103ZM542.302 123.377C541.931 123.409 541.635 123.332 541.415 123.147C541.194 122.961 541.067 122.683 541.036 122.312L540.053 110.924L545.254 110.476C546.138 110.399 546.93 110.506 547.63 110.795C548.328 111.072 548.89 111.511 549.315 112.113C549.74 112.702 549.987 113.404 550.057 114.217L550.397 118.162C550.524 119.633 550.25 120.782 549.575 121.611C548.899 122.429 547.843 122.899 546.409 123.023L542.302 123.377ZM546.271 121.842C547.287 121.755 548.028 121.414 548.495 120.819C548.972 120.212 549.164 119.364 549.07 118.277L548.73 114.331C548.655 113.458 548.301 112.778 547.669 112.291C547.047 111.79 546.264 111.581 545.32 111.662L541.482 111.994L542.361 122.18L546.271 121.842ZM554.386 122.335C554.015 122.367 553.719 122.29 553.499 122.104C553.277 121.906 553.15 121.622 553.118 121.252L552.137 109.882L560.566 109.155L560.665 110.302L553.563 110.915L553.944 115.327L560.507 114.76L560.606 115.908L554.043 116.474L554.448 121.173L561.55 120.56L561.649 121.708L554.386 122.335ZM567.196 121.374C566.478 121.436 565.832 121.341 565.256 121.09C564.679 120.826 564.212 120.433 563.853 119.91C563.506 119.374 563.301 118.741 563.238 118.012L564.529 117.9C564.593 118.641 564.86 119.227 565.331 119.656C565.813 120.072 566.412 120.249 567.129 120.187L569.12 120.015C569.825 119.955 570.38 119.75 570.783 119.402C571.186 119.042 571.365 118.605 571.321 118.091L571.222 116.943C571.187 116.537 570.995 116.204 570.648 115.945C570.312 115.685 569.866 115.537 569.308 115.5L566.034 115.241C565.112 115.164 564.379 114.902 563.834 114.455C563.29 114.008 562.986 113.414 562.922 112.673L562.838 111.705C562.763 110.832 563.026 110.111 563.627 109.541C564.239 108.958 565.083 108.62 566.159 108.527L568.186 108.353C569.202 108.265 570.048 108.505 570.723 109.073C571.397 109.629 571.778 110.409 571.865 111.414L570.573 111.525C570.517 110.867 570.28 110.358 569.863 109.996C569.447 109.635 568.922 109.481 568.288 109.536L566.262 109.711C565.58 109.77 565.049 109.972 564.67 110.318C564.289 110.652 564.121 111.076 564.165 111.59L564.249 112.559C564.285 112.977 564.465 113.317 564.788 113.578C565.124 113.838 565.565 113.993 566.111 114.042L569.369 114.321C570.316 114.408 571.067 114.668 571.623 115.102C572.177 115.524 572.486 116.1 572.549 116.829L572.648 117.977C572.723 118.849 572.449 119.584 571.826 120.179C571.202 120.763 570.346 121.102 569.258 121.196L567.196 121.374ZM574.313 107.968L575.64 107.854L576.723 120.407L575.396 120.522L574.313 107.968ZM583.53 119.964C582.705 120.036 581.966 119.913 581.312 119.596C580.67 119.266 580.145 118.769 579.739 118.105C579.344 117.441 579.108 116.66 579.031 115.764L578.709 112.034C578.631 111.137 578.737 110.333 579.025 109.621C579.323 108.897 579.773 108.316 580.374 107.879C580.974 107.442 581.687 107.188 582.512 107.116L584.413 106.952C585.202 106.884 585.91 106.992 586.537 107.275C587.175 107.557 587.688 107.989 588.076 108.569C588.463 109.15 588.691 109.835 588.759 110.624L587.468 110.736C587.394 109.887 587.084 109.227 586.538 108.756C586.002 108.273 585.328 108.066 584.515 108.136L582.614 108.3C581.753 108.374 581.087 108.745 580.614 109.412C580.141 110.067 579.948 110.903 580.036 111.919L580.358 115.649C580.445 116.665 580.767 117.463 581.323 118.041C581.89 118.606 582.591 118.853 583.428 118.781L585.365 118.614C586.214 118.54 586.876 118.188 587.352 117.557C587.827 116.926 588.024 116.132 587.941 115.176L587.848 114.1L584.369 114.4L584.268 113.234L589.039 112.822L589.232 115.064C589.306 115.925 589.199 116.705 588.91 117.404C588.632 118.091 588.192 118.647 587.591 119.072C587 119.484 586.292 119.726 585.467 119.797L583.53 119.964ZM590.946 106.533L592.201 106.425L600.061 116.28L599.159 105.824L600.451 105.713L601.534 118.266L600.278 118.375L592.424 108.592L593.32 118.975L592.029 119.087L590.946 106.533Z" fill="white"/>
<path d="M977.03 82.3619L971.524 82.8369L970.533 86.4274L969.17 86.545L972.911 73.5754L973.521 73.5228C973.915 73.4887 974.223 73.7031 974.443 74.1658L977.83 81.1726L977.848 81.1711L977.851 81.207L979.984 85.6119L978.621 85.7295L977.03 82.3619ZM971.841 81.6895L976.521 81.2856L973.651 75.2459L973.633 75.2475L971.841 81.6895ZM980.738 72.9L986.836 72.3739C987.756 72.2945 988.514 72.4941 989.109 72.9727C989.716 73.4383 990.055 74.0955 990.129 74.9443L990.242 76.2535C990.296 76.8871 990.142 77.4666 989.777 77.9918C989.412 78.5051 988.898 78.8928 988.234 79.1548L988.235 79.1728C988.61 79.3331 988.959 79.6101 989.283 80.0038C989.618 80.3965 989.885 80.8491 990.086 81.3617L991.362 84.6302L989.999 84.7478L988.723 81.4793C988.505 80.908 988.172 80.461 987.722 80.1384C987.285 79.8148 986.821 79.6742 986.331 79.7165L982.69 80.0306L983.148 85.3389L981.821 85.4534L980.738 72.9ZM986.892 78.4756C987.55 78.4189 988.061 78.2001 988.426 77.8194C988.801 77.4257 988.964 76.9418 988.915 76.368L988.795 74.9871C988.754 74.5089 988.56 74.1402 988.212 73.8812C987.865 73.6221 987.428 73.5152 986.902 73.5606L982.167 73.9691L982.588 78.847L986.892 78.4756ZM995.375 72.7933L991.394 73.1369L991.295 71.9891L1000.58 71.1876L1000.68 72.3353L996.702 72.6788L997.687 84.0845L996.359 84.199L995.375 72.7933ZM1009.47 83.068C1009.1 83.1 1008.8 83.0231 1008.58 82.8374C1008.36 82.6517 1008.23 82.3735 1008.2 82.0029L1007.22 70.6152L1012.42 70.1665C1013.3 70.0902 1014.1 70.1965 1014.79 70.4854C1015.49 70.7624 1016.06 71.2017 1016.48 71.8034C1016.9 72.3931 1017.15 73.0944 1017.22 73.9074L1017.56 77.8528C1017.69 79.3233 1017.42 80.4731 1016.74 81.3022C1016.06 82.1194 1015.01 82.5899 1013.57 82.7137L1009.47 83.068ZM1013.44 81.5331C1014.45 81.4455 1015.19 81.1045 1015.66 80.5102C1016.14 79.9028 1016.33 79.0552 1016.24 77.9673L1015.89 74.0219C1015.82 73.1492 1015.47 72.4691 1014.83 71.9816C1014.21 71.4812 1013.43 71.2717 1012.48 71.3532L1008.65 71.6843L1009.53 81.8705L1013.44 81.5331ZM1019.48 69.5571L1020.81 69.4426L1021.89 81.9959L1020.56 82.1104L1019.48 69.5571ZM1023.86 69.1797L1029.95 68.6536C1030.87 68.5741 1031.63 68.7737 1032.23 69.2523C1032.83 69.7179 1033.17 70.3751 1033.25 71.224L1033.36 72.5331C1033.41 73.1668 1033.26 73.7462 1032.89 74.2715C1032.53 74.7848 1032.01 75.1724 1031.35 75.4345L1031.35 75.4524C1031.73 75.6128 1032.08 75.8898 1032.4 76.2835C1032.73 76.6761 1033 77.1288 1033.2 77.6414L1034.48 80.9098L1033.12 81.0274L1031.84 77.759C1031.62 77.1876 1031.29 76.7406 1030.84 76.4181C1030.4 76.0945 1029.94 75.9538 1029.45 75.9961L1025.81 76.3102L1026.27 81.6185L1024.94 81.733L1023.86 69.1797ZM1030.01 74.7553C1030.67 74.6985 1031.18 74.4798 1031.54 74.099C1031.92 73.7053 1032.08 73.2215 1032.03 72.6476L1031.91 71.2668C1031.87 70.7885 1031.68 70.4199 1031.33 70.1608C1030.98 69.9017 1030.54 69.7949 1030.02 69.8403L1025.28 70.2488L1025.71 75.1266L1030.01 74.7553ZM1037.77 80.6261C1037.4 80.658 1037.1 80.5812 1036.88 80.3955C1036.66 80.1978 1036.53 79.9137 1036.5 79.543L1035.52 68.1733L1043.95 67.446L1044.05 68.5937L1036.95 69.2065L1037.33 73.6181L1043.89 73.0518L1043.99 74.1995L1037.42 74.7658L1037.83 79.4644L1044.93 78.8516L1045.03 79.9994L1037.77 80.6261ZM1050.97 79.631C1050.17 79.7002 1049.45 79.5702 1048.79 79.2413C1048.15 78.9113 1047.62 78.4206 1047.22 77.769C1046.82 77.1045 1046.59 76.3239 1046.51 75.4272L1046.19 71.6971C1046.11 70.8004 1046.21 69.9909 1046.49 69.2686C1046.77 68.5453 1047.21 67.9715 1047.8 67.5472C1048.4 67.11 1049.11 66.8557 1049.94 66.7846L1051.84 66.6205C1052.62 66.5535 1053.31 66.6621 1053.93 66.9463C1054.55 67.2294 1055.05 67.662 1055.43 68.2439C1055.82 68.8247 1056.05 69.5097 1056.11 70.2987L1054.82 70.4101C1054.75 69.5613 1054.45 68.901 1053.91 68.4292C1053.39 67.9444 1052.73 67.7361 1051.94 67.8041L1050.04 67.9682C1049.19 68.0414 1048.54 68.411 1048.08 69.0771C1047.62 69.7312 1047.43 70.5663 1047.52 71.5826L1047.84 75.3127C1047.93 76.3289 1048.25 77.1262 1048.8 77.7046C1049.36 78.271 1050.05 78.5186 1050.87 78.4474L1052.81 78.2803C1053.62 78.2102 1054.25 77.867 1054.69 77.2509C1055.14 76.6337 1055.33 75.8588 1055.25 74.9263L1056.54 74.8148C1056.61 75.6637 1056.51 76.4313 1056.23 77.1178C1055.95 77.7923 1055.52 78.3351 1054.95 78.7464C1054.38 79.1567 1053.7 79.3958 1052.91 79.4639L1050.97 79.631ZM1060.98 67.1327L1057 67.4762L1056.9 66.3285L1066.19 65.527L1066.29 66.6747L1062.31 67.0182L1063.29 78.4238L1061.96 78.5383L1060.98 67.1327ZM1068.34 65.3411L1069.67 65.2266L1070.75 77.7799L1069.43 77.8944L1068.34 65.3411ZM1077.65 77.3294C1076.83 77.4005 1076.08 77.2782 1075.41 76.9622C1074.75 76.6463 1074.21 76.163 1073.79 75.5125C1073.38 74.861 1073.14 74.0868 1073.07 73.1902L1072.73 69.3524C1072.66 68.4558 1072.76 67.6517 1073.05 66.9404C1073.35 66.2279 1073.8 65.6591 1074.4 65.2338C1075 64.8085 1075.72 64.5597 1076.56 64.4875L1078.46 64.3235C1079.3 64.2513 1080.05 64.3732 1080.71 64.6891C1081.38 65.0051 1081.92 65.4888 1082.32 66.1404C1082.74 66.7909 1082.99 67.5645 1083.06 68.4611L1083.39 72.2989C1083.47 73.1956 1083.36 74.0001 1083.06 74.7125C1082.77 75.4119 1082.32 75.9808 1081.71 76.4191C1081.11 76.8444 1080.39 77.0926 1079.57 77.1638L1077.65 77.3294ZM1079.43 75.9833C1080.3 75.908 1080.98 75.5422 1081.47 74.8861C1081.95 74.2299 1082.15 73.4057 1082.07 72.4134L1081.74 68.5756C1081.65 67.5833 1081.31 66.8055 1080.72 66.2422C1080.13 65.6789 1079.4 65.4349 1078.53 65.5102L1076.7 65.668C1075.83 65.7433 1075.15 66.1091 1074.66 66.7652C1074.18 67.4214 1073.98 68.2456 1074.06 69.2379L1074.39 73.0757C1074.48 74.068 1074.81 74.8463 1075.39 75.4107C1075.98 75.974 1076.71 76.218 1077.58 76.1427L1079.43 75.9833ZM1085.2 63.8863L1086.46 63.7779L1094.32 73.6327L1093.42 63.1776L1094.71 63.0661L1095.79 75.6195L1094.54 75.7278L1086.68 65.9448L1087.58 76.3282L1086.29 76.4396L1085.2 63.8863Z" fill="white"/>
<g clip-path="url(#clip3_1_50)">
<path d="M376.299 121.641L378.369 128.496L384.098 124.055L380.621 130.355L387.857 131.183L380.87 133.238L385.374 138.85L378.97 135.455L378.104 142.564L376.034 135.708L370.306 140.15L373.782 133.849L366.547 133.022L373.534 130.967L369.029 125.355L375.434 128.75L376.299 121.641Z" fill="#E94D35"/>
</g>
<path d="M265.126 147.438C264.409 147.5 263.762 147.405 263.186 147.154C262.61 146.89 262.142 146.497 261.784 145.974C261.437 145.438 261.231 144.805 261.168 144.076L262.46 143.964C262.524 144.705 262.791 145.291 263.262 145.72C263.743 146.136 264.343 146.313 265.06 146.251L267.05 146.079C267.756 146.019 268.31 145.814 268.714 145.466C269.116 145.106 269.296 144.669 269.251 144.155L269.152 143.007C269.117 142.601 268.926 142.268 268.578 142.009C268.243 141.749 267.796 141.601 267.239 141.564L263.965 141.305C263.043 141.228 262.309 140.966 261.765 140.519C261.22 140.072 260.916 139.478 260.852 138.737L260.769 137.769C260.693 136.896 260.956 136.175 261.558 135.605C262.17 135.022 263.014 134.684 264.09 134.591L266.116 134.416C267.133 134.329 267.978 134.569 268.654 135.137C269.328 135.693 269.709 136.473 269.795 137.478L268.504 137.589C268.447 136.931 268.211 136.422 267.794 136.06C267.377 135.699 266.852 135.545 266.219 135.6L264.192 135.775C263.511 135.834 262.98 136.036 262.6 136.382C262.22 136.716 262.051 137.14 262.096 137.654L262.179 138.623C262.216 139.041 262.395 139.381 262.719 139.642C263.055 139.902 263.496 140.057 264.042 140.106L267.3 140.385C268.247 140.472 268.998 140.732 269.553 141.166C270.108 141.588 270.416 142.164 270.479 142.893L270.578 144.041C270.654 144.913 270.38 145.648 269.757 146.243C269.132 146.827 268.276 147.166 267.188 147.26L265.126 147.438ZM274.967 134.954L270.986 135.297L270.887 134.149L280.176 133.348L280.276 134.496L276.294 134.839L277.278 146.245L275.951 146.359L274.967 134.954ZM282.151 133.177L288.249 132.651C289.169 132.572 289.927 132.771 290.523 133.25C291.129 133.716 291.469 134.373 291.542 135.222L291.655 136.531C291.71 137.165 291.555 137.744 291.191 138.269C290.825 138.783 290.311 139.17 289.647 139.432L289.648 139.45C290.024 139.611 290.373 139.888 290.696 140.281C291.031 140.674 291.299 141.127 291.499 141.639L292.775 144.908L291.412 145.025L290.136 141.757C289.919 141.185 289.585 140.738 289.136 140.416C288.698 140.092 288.234 139.952 287.744 139.994L284.104 140.308L284.562 145.616L283.235 145.731L282.151 133.177ZM288.305 138.753C288.963 138.696 289.474 138.478 289.839 138.097C290.214 137.703 290.377 137.219 290.328 136.645L290.209 135.265C290.167 134.786 289.973 134.418 289.625 134.159C289.278 133.899 288.841 133.793 288.315 133.838L283.581 134.247L284.001 139.124L288.305 138.753ZM301.718 140.631L296.212 141.106L295.221 144.697L293.858 144.814L297.599 131.845L298.209 131.792C298.603 131.758 298.911 131.972 299.131 132.435L302.518 139.442L302.536 139.44L302.539 139.476L304.672 143.881L303.309 143.999L301.718 140.631ZM296.529 139.959L301.209 139.555L298.339 133.515L298.321 133.517L296.529 139.959ZM306.823 132.205L302.842 132.548L302.743 131.401L312.033 130.599L312.132 131.747L308.151 132.09L309.135 143.496L307.808 143.611L306.823 132.205ZM316.256 142.882C315.886 142.913 315.59 142.837 315.369 142.651C315.148 142.453 315.021 142.169 314.989 141.798L314.008 130.429L322.436 129.701L322.535 130.849L315.434 131.462L315.814 135.874L322.378 135.307L322.477 136.455L315.913 137.021L316.319 141.72L323.42 141.107L323.519 142.255L316.256 142.882ZM329.499 141.883C328.674 141.955 327.935 141.832 327.281 141.515C326.639 141.185 326.114 140.688 325.707 140.024C325.313 139.36 325.077 138.579 324.999 137.683L324.678 133.953C324.6 133.056 324.705 132.252 324.993 131.54C325.292 130.816 325.742 130.235 326.343 129.798C326.943 129.361 327.656 129.107 328.481 129.035L330.382 128.871C331.171 128.803 331.879 128.911 332.505 129.194C333.144 129.476 333.657 129.908 334.044 130.488C334.432 131.069 334.66 131.754 334.728 132.543L333.436 132.655C333.363 131.806 333.053 131.146 332.507 130.675C331.971 130.192 331.297 129.985 330.484 130.055L328.583 130.219C327.722 130.293 327.056 130.664 326.583 131.331C326.11 131.986 325.917 132.822 326.005 133.838L326.326 137.568C326.414 138.584 326.736 139.382 327.292 139.96C327.858 140.525 328.56 140.772 329.397 140.7L331.334 140.533C332.183 140.459 332.845 140.107 333.32 139.476C333.796 138.845 333.992 138.051 333.91 137.095L333.817 136.019L330.338 136.319L330.237 135.153L335.008 134.741L335.201 136.983C335.275 137.844 335.168 138.624 334.879 139.323C334.601 140.01 334.161 140.566 333.56 140.991C332.969 141.403 332.261 141.645 331.436 141.716L329.499 141.883ZM340.518 135.928L335.224 128.598L336.659 128.474L341.078 134.669L344.37 127.809L345.805 127.685L341.845 135.814L342.261 140.638L340.934 140.752L340.518 135.928Z" fill="white"/>
<g clip-path="url(#clip4_1_50)">
<path d="M893.83 76.9863L895.9 83.8414L901.628 79.4002L898.152 85.7004L905.387 86.528L898.401 88.5828L902.905 94.1945L896.5 90.8001L895.635 97.9085L893.565 91.0534L887.836 95.4947L891.313 89.1944L884.077 88.3668L891.064 86.312L886.56 80.7004L892.964 84.0947L893.83 76.9863Z" fill="#E94D35"/>
</g>
<path d="M713.406 95.9667L714.679 95.8568L719.882 103.809L723.521 95.094L724.794 94.9841L725.877 107.537L724.568 107.65L723.698 97.5719L720.67 104.771C720.559 105.021 720.46 105.199 720.372 105.302C720.284 105.394 720.18 105.445 720.06 105.456L719.666 105.49L714.929 98.3286L715.798 108.407L714.489 108.52L713.406 95.9667ZM732.595 107.102C731.77 107.174 731.025 107.051 730.359 106.735C729.694 106.419 729.152 105.936 728.735 105.285C728.329 104.634 728.088 103.86 728.01 102.963L727.679 99.1254C727.602 98.2288 727.707 97.4247 727.995 96.7133C728.295 96.0009 728.746 95.4321 729.347 95.0068C729.949 94.5815 730.668 94.3327 731.505 94.2605L733.406 94.0965C734.243 94.0243 734.994 94.1462 735.66 94.4621C736.325 94.7781 736.861 95.2618 737.266 95.9134C737.684 96.5639 737.931 97.3375 738.009 98.2341L738.34 102.072C738.417 102.969 738.306 103.773 738.006 104.486C737.717 105.185 737.266 105.754 736.654 106.192C736.052 106.617 735.339 106.866 734.514 106.937L732.595 107.102ZM734.376 105.756C735.249 105.681 735.928 105.315 736.413 104.659C736.898 104.003 737.098 103.179 737.013 102.186L736.682 98.3486C736.596 97.3563 736.258 96.5785 735.667 96.0152C735.077 95.4519 734.345 95.2079 733.472 95.2832L731.643 95.441C730.77 95.5163 730.091 95.8821 729.606 96.5382C729.12 97.1944 728.921 98.0186 729.006 99.0109L729.337 102.849C729.423 103.841 729.755 104.619 730.334 105.184C730.924 105.747 731.656 105.991 732.529 105.916L734.376 105.756ZM742.754 94.5907L738.773 94.9342L738.674 93.7865L747.963 92.9849L748.062 94.1327L744.081 94.4762L745.065 105.882L743.738 105.996L742.754 94.5907ZM750.118 92.7991L751.445 92.6846L752.528 105.238L751.201 105.352L750.118 92.7991ZM759.425 104.787C758.6 104.859 757.855 104.736 757.189 104.42C756.524 104.104 755.982 103.621 755.565 102.97C755.159 102.319 754.918 101.545 754.84 100.648L754.509 96.8104C754.432 95.9137 754.537 95.1097 754.825 94.3983C755.125 93.6859 755.576 93.1171 756.177 92.6918C756.779 92.2665 757.498 92.0177 758.335 91.9455L760.236 91.7815C761.073 91.7093 761.824 91.8311 762.49 92.1471C763.155 92.463 763.691 92.9468 764.096 93.5983C764.514 94.2489 764.761 95.0224 764.839 95.9191L765.17 99.7569C765.247 100.654 765.136 101.458 764.836 102.17C764.547 102.87 764.096 103.439 763.484 103.877C762.882 104.302 762.169 104.551 761.344 104.622L759.425 104.787ZM761.206 103.441C762.079 103.366 762.758 103 763.243 102.344C763.728 101.688 763.928 100.864 763.843 99.8714L763.512 96.0336C763.426 95.0413 763.088 94.2635 762.497 93.7002C761.907 93.1369 761.175 92.8929 760.302 92.9682L758.473 93.126C757.6 93.2013 756.921 93.567 756.436 94.2232C755.95 94.8794 755.751 95.7036 755.836 96.6959L756.167 100.534C756.253 101.526 756.585 102.304 757.164 102.869C757.754 103.432 758.486 103.676 759.359 103.601L761.206 103.441ZM766.979 91.3442L768.234 91.2359L776.094 101.091L775.192 90.6355L776.483 90.5241L777.566 103.077L776.311 103.186L768.457 93.4028L769.353 103.786L768.062 103.898L766.979 91.3442ZM788.862 102.247C788.037 102.319 787.298 102.196 786.644 101.879C786.002 101.549 785.477 101.052 785.071 100.388C784.676 99.7239 784.44 98.9433 784.363 98.0466L784.041 94.3165C783.963 93.4198 784.069 92.6158 784.357 91.9044C784.655 91.18 785.105 90.5992 785.706 90.162C786.306 89.7247 787.019 89.4705 787.844 89.3993L789.745 89.2353C790.534 89.1672 791.242 89.2748 791.869 89.5579C792.507 89.8401 793.02 90.2716 793.408 90.8524C793.795 91.4333 794.023 92.1182 794.091 92.9073L792.8 93.0187C792.726 92.1699 792.416 91.5101 791.87 91.0393C791.334 90.5555 790.66 90.3487 789.847 90.4189L787.946 90.5829C787.085 90.6572 786.419 91.0279 785.946 91.6949C785.473 92.3501 785.28 93.1857 785.368 94.202L785.69 97.9321C785.777 98.9483 786.099 99.7456 786.655 100.324C787.222 100.889 787.923 101.136 788.76 101.064L790.697 100.897C791.546 100.823 792.208 100.471 792.684 99.8399C793.159 99.2087 793.356 98.4149 793.273 97.4584L793.18 96.3824L789.701 96.6826L789.601 95.517L794.371 95.1054L794.564 97.347C794.638 98.2078 794.531 98.988 794.242 99.6874C793.964 100.374 793.524 100.93 792.923 101.355C792.332 101.767 791.624 102.009 790.799 102.08L788.862 102.247ZM796.278 88.8161L802.375 88.29C803.296 88.2106 804.054 88.4102 804.649 88.8888C805.255 89.3544 805.595 90.0116 805.668 90.8604L805.781 92.1696C805.836 92.8032 805.681 93.3827 805.317 93.9079C804.952 94.4212 804.437 94.8089 803.773 95.0709L803.775 95.0889C804.15 95.2492 804.499 95.5262 804.822 95.9199C805.157 96.3126 805.425 96.7652 805.626 97.2779L806.902 100.546L805.539 100.664L804.263 97.3955C804.045 96.8241 803.711 96.3771 803.262 96.0545C802.825 95.7309 802.361 95.5903 801.871 95.6326L798.23 95.9467L798.688 101.255L797.361 101.369L796.278 88.8161ZM802.432 94.3917C803.09 94.335 803.601 94.1163 803.965 93.7355C804.341 93.3418 804.504 92.858 804.454 92.2841L804.335 90.9032C804.294 90.425 804.099 90.0563 803.752 89.7973C803.404 89.5382 802.968 89.4313 802.441 89.4767L797.707 89.8852L798.128 94.7631L802.432 94.3917ZM815.844 96.2697L810.339 96.7448L809.348 100.335L807.985 100.453L811.726 87.4832L812.335 87.4306C812.73 87.3966 813.037 87.6109 813.258 88.0737L816.645 95.0805L816.663 95.0789L816.666 95.1148L818.798 99.5198L817.435 99.6374L815.844 96.2697ZM810.655 95.5973L815.336 95.1934L812.466 89.1538L812.448 89.1553L810.655 95.5973ZM819.553 86.8079L825.632 86.2833C826.565 86.2028 827.335 86.4014 827.942 86.879C828.561 87.3555 828.908 88.0242 828.982 88.885L829.142 90.7321C829.221 91.6527 828.981 92.4262 828.42 93.0527C827.859 93.6672 827.082 94.0173 826.09 94.1029L821.553 94.4944L821.963 99.2467L820.636 99.3612L819.553 86.8079ZM825.952 92.9224C826.562 92.8698 827.037 92.6541 827.378 92.2754C827.717 91.8848 827.862 91.3966 827.811 90.8107L827.652 88.9636C827.61 88.4734 827.408 88.0933 827.048 87.8233C826.698 87.5403 826.248 87.4226 825.698 87.47L820.982 87.877L821.451 93.3108L825.952 92.9224ZM830.744 85.8423L832.071 85.7278L832.557 91.3588L839.479 90.7616L838.993 85.1305L840.32 85.016L841.403 97.5693L840.076 97.6838L839.581 91.9452L832.659 92.5424L833.154 98.2811L831.827 98.3956L830.744 85.8423ZM843.375 84.7524L844.702 84.6379L845.785 97.1913L844.458 97.3058L843.375 84.7524ZM852.556 96.7515C851.755 96.8206 851.028 96.6907 850.373 96.3618C849.73 96.0318 849.206 95.541 848.801 94.8895C848.406 94.225 848.17 93.4443 848.093 92.5477L847.771 88.8175C847.693 87.9209 847.792 87.1114 848.067 86.3891C848.354 85.6657 848.792 85.0919 849.382 84.6677C849.983 84.2304 850.695 83.9762 851.52 83.905L853.421 83.741C854.198 83.6739 854.894 83.7825 855.509 84.0667C856.136 84.3499 856.637 84.7824 857.012 85.3643C857.399 85.9452 857.627 86.6301 857.695 87.4192L856.404 87.5306C856.331 86.6818 856.027 86.0214 855.492 85.5496C854.969 85.0649 854.312 84.8565 853.523 84.9246L851.622 85.0886C850.774 85.1619 850.119 85.5315 849.658 86.1976C849.197 86.8517 849.01 87.6868 849.098 88.703L849.42 92.4332C849.507 93.4494 849.829 94.2467 850.385 94.8251C850.94 95.3915 851.629 95.6391 852.454 95.5679L854.391 95.4008C855.204 95.3306 855.831 94.9875 856.272 94.3713C856.724 93.7541 856.91 92.9793 856.83 92.0467L858.121 91.9353C858.194 92.7842 858.092 93.5518 857.814 94.2382C857.535 94.9127 857.106 95.4556 856.527 95.8669C855.96 96.2771 855.282 96.5163 854.493 96.5844L852.556 96.7515Z" fill="white"/>
<g clip-path="url(#clip5_1_50)">
<path d="M1132.13 54.4174L1134.2 61.2725L1139.93 56.8313L1136.45 63.1315L1143.69 63.9591L1136.7 66.0139L1141.2 71.6256L1134.8 68.2312L1133.93 75.3396L1131.86 68.4845L1126.13 72.9258L1129.61 66.6255L1122.38 65.7979L1129.36 63.7431L1124.86 58.1314L1131.26 61.5258L1132.13 54.4174Z" fill="#E94D35"/>
</g>
<path d="M1376.18 50.4224C1375.83 50.4523 1375.54 50.369 1375.31 50.1723C1375.08 49.9757 1374.95 49.704 1374.92 49.3573L1373.93 37.9696L1379.24 37.5116C1380.3 37.4198 1381.18 37.6031 1381.87 38.0615C1382.57 38.5069 1382.96 39.148 1383.03 39.9849L1383.11 40.9354C1383.15 41.3777 1383.09 41.8109 1382.92 42.235C1382.75 42.647 1382.5 42.9881 1382.16 43.2581L1382.16 43.2761C1382.76 43.381 1383.25 43.6456 1383.64 44.07C1384.03 44.4814 1384.26 44.986 1384.31 45.5838L1384.38 46.4446C1384.47 47.4249 1384.23 48.2408 1383.66 48.8922C1383.08 49.5317 1382.27 49.8973 1381.2 49.9892L1376.18 50.4224ZM1380.09 43.1476C1380.65 43.0991 1381.08 42.8871 1381.39 42.5115C1381.7 42.1229 1381.84 41.6357 1381.79 41.0499L1381.7 40.0994C1381.66 39.6212 1381.42 39.2567 1380.98 39.0058C1380.55 38.742 1380 38.6385 1379.34 38.6952L1375.36 39.0387L1375.75 43.5221L1380.09 43.1476ZM1380.92 48.821C1381.64 48.7591 1382.18 48.5253 1382.56 48.1196C1382.94 47.701 1383.11 47.1808 1383.06 46.5591L1382.98 45.6983C1382.94 45.1961 1382.73 44.8111 1382.34 44.5432C1381.96 44.2633 1381.47 44.1486 1380.88 44.1991L1375.84 44.634L1376.24 49.2249L1380.92 48.821ZM1385.81 36.9451L1391.9 36.419C1392.82 36.3396 1393.58 36.5392 1394.18 37.0177C1394.78 37.4833 1395.12 38.1406 1395.2 38.9894L1395.31 40.2986C1395.36 40.9322 1395.21 41.5117 1394.85 42.0369C1394.48 42.5502 1393.97 42.9379 1393.3 43.1999L1393.3 43.2179C1393.68 43.3782 1394.03 43.6552 1394.35 44.0489C1394.69 44.4415 1394.95 44.8942 1395.15 45.4068L1396.43 48.6753L1395.07 48.7929L1393.79 45.5244C1393.57 44.953 1393.24 44.5061 1392.79 44.1835C1392.35 43.8599 1391.89 43.7193 1391.4 43.7616L1387.76 44.0757L1388.22 49.384L1386.89 49.4985L1385.81 36.9451ZM1391.96 42.5207C1392.62 42.464 1393.13 42.2452 1393.49 41.8645C1393.87 41.4707 1394.03 40.9869 1393.98 40.4131L1393.86 39.0322C1393.82 38.554 1393.63 38.1853 1393.28 37.9262C1392.93 37.6672 1392.5 37.5603 1391.97 37.6057L1387.24 38.0142L1387.66 42.8921L1391.96 42.5207ZM1405.37 44.3987L1399.87 44.8737L1398.88 48.4642L1397.51 48.5818L1401.25 35.6122L1401.86 35.5596C1402.26 35.5256 1402.57 35.7399 1402.79 36.2027L1406.17 43.2094L1406.19 43.2079L1406.19 43.2438L1408.33 47.6487L1406.96 47.7663L1405.37 44.3987ZM1400.18 43.7263L1404.86 43.3224L1401.99 37.2828L1401.98 37.2843L1400.18 43.7263ZM1409.08 34.9368L1410.34 34.8285L1418.2 44.6833L1417.29 34.2281L1418.59 34.1167L1419.67 46.6701L1418.41 46.7784L1410.56 36.9954L1411.46 47.3788L1410.16 47.4902L1409.08 34.9368ZM1423.71 46.3213C1423.34 46.3532 1423.05 46.2764 1422.82 46.0907C1422.6 45.905 1422.48 45.6268 1422.45 45.2562L1421.46 33.8685L1426.66 33.4197C1427.55 33.3434 1428.34 33.4497 1429.04 33.7387C1429.74 34.0156 1430.3 34.455 1430.73 35.0566C1431.15 35.6464 1431.4 36.3477 1431.47 37.1607L1431.81 41.106C1431.93 42.5766 1431.66 43.7264 1430.98 44.5555C1430.31 45.3727 1429.25 45.8431 1427.82 45.9669L1423.71 46.3213ZM1427.68 44.7864C1428.7 44.6987 1429.44 44.3577 1429.9 43.7634C1430.38 43.1561 1430.57 42.3085 1430.48 41.2205L1430.14 37.2752C1430.06 36.4024 1429.71 35.7223 1429.08 35.2349C1428.46 34.7344 1427.67 34.525 1426.73 34.6064L1422.89 34.9376L1423.77 45.1237L1427.68 44.7864ZM1433.73 32.8103L1435.05 32.6958L1436.14 45.2492L1434.81 45.3637L1433.73 32.8103ZM1438.1 32.4329L1439.36 32.3246L1447.22 42.1794L1446.31 31.7242L1447.61 31.6128L1448.69 44.1662L1447.43 44.2745L1439.58 34.4915L1440.47 44.8749L1439.18 44.9863L1438.1 32.4329ZM1455.33 43.738C1454.5 43.8092 1453.76 43.6863 1453.11 43.3693C1452.47 43.0393 1451.94 42.5426 1451.53 41.8791C1451.14 41.2145 1450.9 40.4339 1450.83 39.5373L1450.5 35.8071C1450.43 34.9105 1450.53 34.1064 1450.82 33.3951C1451.12 32.6707 1451.57 32.0899 1452.17 31.6526C1452.77 31.2154 1453.48 30.9612 1454.31 30.89L1456.21 30.726C1457 30.6579 1457.71 30.7654 1458.33 31.0486C1458.97 31.3307 1459.48 31.7622 1459.87 32.3431C1460.26 32.9239 1460.49 33.6089 1460.55 34.398L1459.26 34.5094C1459.19 33.6605 1458.88 33.0007 1458.33 32.53C1457.8 32.0462 1457.12 31.8394 1456.31 31.9096L1454.41 32.0736C1453.55 32.1478 1452.88 32.5185 1452.41 33.1856C1451.94 33.8407 1451.74 34.6764 1451.83 35.6926L1452.15 39.4228C1452.24 40.439 1452.56 41.2363 1453.12 41.8147C1453.68 42.38 1454.39 42.6266 1455.22 42.5544L1457.16 42.3873C1458.01 42.314 1458.67 41.9618 1459.15 41.3306C1459.62 40.6994 1459.82 39.9056 1459.74 38.9491L1459.64 37.8731L1456.16 38.1733L1456.06 37.0076L1460.83 36.596L1461.03 38.8377C1461.1 39.6985 1460.99 40.4786 1460.71 41.178C1460.43 41.8645 1459.99 42.4204 1459.39 42.8457C1458.8 43.258 1458.09 43.4997 1457.26 43.5709L1455.33 43.738Z" fill="white"/>
<g clip-path="url(#clip6_1_50)">
<path d="M1303.62 39.6199L1305.69 46.4751L1311.42 42.0338L1307.95 48.3341L1315.18 49.1617L1308.19 51.2165L1312.7 56.8281L1306.29 53.4338L1305.43 60.5422L1303.36 53.6871L1297.63 58.1283L1301.11 51.8281L1293.87 51.0004L1300.86 48.9457L1296.35 43.334L1302.76 46.7284L1303.62 39.6199Z" fill="#E94D35"/>
</g>
<path d="M1209.76 64.782C1209.39 64.814 1209.09 64.7372 1208.87 64.5514C1208.65 64.3657 1208.53 64.0876 1208.49 63.717L1207.51 52.3293L1212.71 51.8805C1213.6 51.8042 1214.39 51.9105 1215.09 52.1994C1215.79 52.4764 1216.35 52.9157 1216.77 53.5174C1217.2 54.1071 1217.44 54.8085 1217.52 55.6214L1217.86 59.5668C1217.98 61.0373 1217.71 62.1872 1217.03 63.0163C1216.36 63.8334 1215.3 64.3039 1213.87 64.4277L1209.76 64.782ZM1213.73 63.2472C1214.74 63.1595 1215.49 62.8185 1215.95 62.2242C1216.43 61.6169 1216.62 60.7693 1216.53 59.6813L1216.19 55.736C1216.11 54.8632 1215.76 54.1831 1215.13 53.6956C1214.51 53.1952 1213.72 52.9857 1212.78 53.0672L1208.94 53.3984L1209.82 63.5845L1213.73 63.2472ZM1221.84 63.7394C1221.47 63.7714 1221.18 63.6945 1220.96 63.5088C1220.73 63.3111 1220.61 63.027 1220.58 62.6564L1219.59 51.2866L1228.02 50.5593L1228.12 51.7071L1221.02 52.3198L1221.4 56.7314L1227.97 56.1651L1228.06 57.3128L1221.5 57.8792L1221.91 62.5777L1229.01 61.965L1229.11 63.1127L1221.84 63.7394ZM1234.65 62.7786C1233.94 62.8405 1233.29 62.7457 1232.71 62.4943C1232.14 62.2309 1231.67 61.8376 1231.31 61.3145C1230.96 60.7784 1230.76 60.1457 1230.7 59.4164L1231.99 59.305C1232.05 60.0462 1232.32 60.6314 1232.79 61.0605C1233.27 61.4767 1233.87 61.6538 1234.59 61.5919L1236.58 61.4202C1237.28 61.3593 1237.84 61.1549 1238.24 60.8069C1238.64 60.447 1238.82 60.0099 1238.78 59.4959L1238.68 58.3481C1238.64 57.9416 1238.45 57.6088 1238.11 57.3498C1237.77 57.0896 1237.32 56.9415 1236.77 56.9052L1233.49 56.6458C1232.57 56.5687 1231.84 56.3068 1231.29 55.86C1230.75 55.4131 1230.44 54.8191 1230.38 54.0778L1230.3 53.1094C1230.22 52.2366 1230.48 51.5154 1231.09 50.9456C1231.7 50.3628 1232.54 50.025 1233.62 49.9321L1235.64 49.7573C1236.66 49.6696 1237.51 49.9098 1238.18 50.4778C1238.86 51.0339 1239.24 51.8141 1239.32 52.8184L1238.03 52.9298C1237.97 52.2722 1237.74 51.7627 1237.32 51.4012C1236.9 51.0396 1236.38 50.8862 1235.75 50.9409L1233.72 51.1157C1233.04 51.1745 1232.51 51.3769 1232.13 51.7228C1231.75 52.0568 1231.58 52.4808 1231.62 52.9949L1231.71 53.9633C1231.74 54.3817 1231.92 54.7215 1232.25 54.9827C1232.58 55.2428 1233.02 55.3975 1233.57 55.4467L1236.83 55.7256C1237.77 55.8126 1238.53 56.0729 1239.08 56.5068C1239.64 56.9287 1239.94 57.5043 1240.01 58.2336L1240.11 59.3813C1240.18 60.2541 1239.91 60.9884 1239.28 61.5841C1238.66 62.168 1237.8 62.5068 1236.72 62.6007L1234.65 62.7786ZM1241.77 49.3732L1243.1 49.2587L1244.18 61.812L1242.85 61.9265L1241.77 49.3732ZM1250.99 61.3692C1250.16 61.4404 1249.42 61.3175 1248.77 61.0005C1248.13 60.6705 1247.6 60.1738 1247.2 59.5103C1246.8 58.8457 1246.57 58.0651 1246.49 57.1684L1246.17 53.4383C1246.09 52.5416 1246.19 51.7376 1246.48 51.0262C1246.78 50.3019 1247.23 49.721 1247.83 49.2838C1248.43 48.8465 1249.15 48.5923 1249.97 48.5211L1251.87 48.3571C1252.66 48.289 1253.37 48.3966 1253.99 48.6798C1254.63 48.9619 1255.15 49.3934 1255.53 49.9743C1255.92 50.5551 1256.15 51.2401 1256.22 52.0291L1254.93 52.1405C1254.85 51.2917 1254.54 50.6319 1254 50.1611C1253.46 49.6774 1252.79 49.4706 1251.97 49.5407L1250.07 49.7047C1249.21 49.779 1248.54 50.1497 1248.07 50.8168C1247.6 51.4719 1247.41 52.3076 1247.49 53.3238L1247.82 57.0539C1247.9 58.0702 1248.23 58.8675 1248.78 59.4458C1249.35 60.0112 1250.05 60.2578 1250.89 60.1856L1252.82 60.0185C1253.67 59.9452 1254.33 59.593 1254.81 58.9618C1255.29 58.3306 1255.48 57.5367 1255.4 56.5803L1255.31 55.5043L1251.83 55.8045L1251.73 54.6388L1256.5 54.2272L1256.69 56.4689C1256.76 57.3297 1256.66 58.1098 1256.37 58.8092C1256.09 59.4957 1255.65 60.0515 1255.05 60.4768C1254.46 60.8891 1253.75 61.1309 1252.93 61.2021L1250.99 61.3692ZM1258.4 47.938L1259.66 47.8297L1267.52 57.6844L1266.62 47.2293L1267.91 47.1179L1268.99 59.6712L1267.74 59.7795L1259.88 49.9965L1260.78 60.3799L1259.49 60.4913L1258.4 47.938Z" fill="white"/>
</g>
<defs>
<clipPath id="clip0_1_50">
<rect width="1466.69" height="64" fill="white" transform="translate(-11.2117 126.974) rotate(-4.93154)"/>
</clipPath>
<clipPath id="clip1_1_50">
<rect width="21.3893" height="21" fill="white" transform="translate(167.593 137.642) rotate(-4.93154)"/>
</clipPath>
<clipPath id="clip2_1_50">
<rect width="21.3893" height="21" fill="white" transform="translate(625.424 100.146) rotate(-4.93154)"/>
</clipPath>
<clipPath id="clip3_1_50">
<rect width="21.3893" height="21" fill="white" transform="translate(365.644 122.561) rotate(-4.93154)"/>
</clipPath>
<clipPath id="clip4_1_50">
<rect width="21.3893" height="21" fill="white" transform="translate(883.175 77.9056) rotate(-4.93154)"/>
</clipPath>
<clipPath id="clip5_1_50">
<rect width="21.3893" height="21" fill="white" transform="translate(1121.39 54.3405) rotate(-4.93154)"/>
</clipPath>
<clipPath id="clip6_1_50">
<rect width="21.3893" height="21" fill="white" transform="translate(1292.97 40.5393) rotate(-4.93154)"/>
</clipPath>
</defs>
</svg>
