<svg width="38" height="39" viewBox="0 0 38 39" fill="none" xmlns="http://www.w3.org/2000/svg">
<path d="M13.9719 5.78552L2.36107 25.8954L12.4169 31.7013L24.0276 11.5914L13.9719 5.78552Z" fill="#FBBC04"/>
<path d="M35.6389 25.8938L24.0271 5.78349C22.424 3.00672 18.8733 2.05474 16.0966 3.65786C13.3198 5.26099 12.3678 8.81162 13.9709 11.5884L25.5827 31.6987C27.1858 34.4755 30.7365 35.4255 33.5132 33.8243C36.29 32.2212 37.24 28.6706 35.6389 25.8938Z" fill="#4285F4"/>
<path d="M7.39021 34.6022C10.5962 34.6022 13.1951 32.0033 13.1951 28.7973C13.1951 25.5914 10.5962 22.9924 7.39021 22.9924C4.18425 22.9924 1.58531 25.5914 1.58531 28.7973C1.58531 32.0033 4.18425 34.6022 7.39021 34.6022Z" fill="#34A853"/>
</svg>
