<svg width="38" height="39" viewBox="0 0 38 39" fill="none" xmlns="http://www.w3.org/2000/svg">
<path fill-rule="evenodd" clip-rule="evenodd" d="M38 19.4783C38 9.03139 29.4934 0.5625 19 0.5625C8.50658 0.5625 0 9.03139 0 19.4783C0 28.9197 6.94803 36.7453 16.0312 38.1643V24.9462H11.207V19.4783H16.0312V15.3109C16.0312 10.5701 18.8678 7.95149 23.2078 7.95149C25.2866 7.95149 27.4609 8.32094 27.4609 8.32094V12.976H25.0651C22.7048 12.976 21.9688 14.4341 21.9688 15.93V19.4783H27.2383L26.3959 24.9462H21.9688V38.1643C31.052 36.7453 38 28.9197 38 19.4783Z" fill="#1877F2"/>
<path fill-rule="evenodd" clip-rule="evenodd" d="M26.262 24.6682L27.0929 19.1808H21.8955V15.6198C21.8955 14.1186 22.6215 12.6553 24.9495 12.6553H27.3125V7.98356C27.3125 7.98356 25.1679 7.61279 23.1177 7.61279C18.8371 7.61279 16.0394 10.2408 16.0394 14.9985V19.1808H11.2812V24.6682H16.0394V37.9337C16.9935 38.0853 17.9713 38.1643 18.9675 38.1643C19.9636 38.1643 20.9415 38.0853 21.8955 37.9337V24.6682H26.262Z" fill="white"/>
</svg>
