<svg width="18" height="22" viewBox="0 0 18 22" fill="none" xmlns="http://www.w3.org/2000/svg">
<path d="M14.5488 11.3219C14.5252 8.66289 16.6991 7.36929 16.7985 7.30907C15.5673 5.49159 13.659 5.24327 12.9884 5.22347C11.3857 5.05269 9.83103 6.19449 9.01458 6.19449C8.18184 6.19449 6.92458 5.23996 5.56954 5.26801C3.82584 5.29524 2.19458 6.31741 1.29991 7.90472C-0.546456 11.1412 0.830581 15.8973 2.59954 18.5134C3.48443 19.7946 4.51843 21.2252 5.87184 21.1748C7.19591 21.1196 7.69051 20.3201 9.28836 20.3201C10.8715 20.3201 11.336 21.1748 12.7163 21.1427C14.1373 21.1196 15.032 19.8557 15.8859 18.5629C16.9085 17.0944 17.3192 15.6482 17.3355 15.5739C17.3021 15.5624 14.5757 14.5088 14.5488 11.3219Z" fill="white"/>
<path d="M11.9414 3.50233C12.6536 2.60061 13.1408 1.37383 13.0056 0.128906C11.9748 0.175106 10.6858 0.850781 9.94348 1.73271C9.28674 2.50986 8.70007 3.78366 8.85163 4.98156C10.0095 5.06901 11.1983 4.39003 11.9414 3.50233Z" fill="white"/>
</svg>
