<svg width="18" height="18" viewBox="0 0 18 18" fill="none" xmlns="http://www.w3.org/2000/svg">
<path d="M9 1.95C11.325 1.95 11.55 1.95001 12.45 2.02501C13.275 2.10001 13.725 2.175 14.025 2.325C14.4 2.475 14.7 2.7 15 3C15.3 3.3 15.525 3.59999 15.675 3.97499C15.825 4.27499 15.9 4.725 15.975 5.55C16.05 6.45 16.05 6.75 16.05 9C16.05 11.25 16.05 11.55 15.975 12.45C15.9 13.275 15.825 13.725 15.675 14.025C15.525 14.4 15.3 14.7 15 15C14.7 15.3 14.4 15.525 14.025 15.675C13.725 15.825 13.275 15.9 12.45 15.975C11.55 16.05 11.25 16.05 9 16.05C6.75 16.05 6.45002 16.05 5.55002 15.975C4.72502 15.9 4.27499 15.825 3.97499 15.675C3.59999 15.525 3.3 15.3 3 15C2.7 14.7 2.47498 14.4 2.32498 14.025C2.17498 13.725 2.10001 13.275 2.02501 12.45C1.95001 11.55 1.94998 11.25 1.94998 9C1.94998 6.75 1.95001 6.45 2.02501 5.55C2.10001 4.725 2.17498 4.27499 2.32498 3.97499C2.47498 3.59999 2.7 3.3 3 3C3.3 2.7 3.59999 2.475 3.97499 2.325C4.27499 2.175 4.72502 2.10001 5.55002 2.02501C6.45002 1.95001 6.675 1.95 9 1.95ZM9 0.375C6.675 0.375 6.37499 0.375005 5.47499 0.450005C4.57499 0.525005 3.9 0.675005 3.375 0.825005C2.775 1.05 2.325 1.35 1.875 1.8C1.425 2.25 1.12501 2.775 0.900009 3.3C0.675009 3.825 0.525009 4.50001 0.525009 5.40001C0.450009 6.30001 0.449982 6.6 0.449982 8.925C0.449982 11.25 0.450009 11.55 0.525009 12.45C0.600009 13.35 0.750009 14.025 0.900009 14.55C1.12501 15.15 1.425 15.6 1.875 16.05C2.325 16.5 2.85 16.8 3.375 17.025C3.9 17.25 4.57499 17.4 5.47499 17.4C6.37499 17.475 6.675 17.475 9 17.475C11.325 17.475 11.625 17.475 12.525 17.4C13.425 17.325 14.1 17.175 14.625 17.025C15.225 16.8 15.675 16.5 16.125 16.05C16.575 15.6 16.875 15.075 17.1 14.55C17.325 14.025 17.475 13.35 17.475 12.45C17.55 11.55 17.55 11.25 17.55 8.925C17.55 6.6 17.55 6.30001 17.475 5.40001C17.4 4.50001 17.25 3.825 17.1 3.3C16.875 2.7 16.575 2.25 16.125 1.8C15.675 1.35 15.15 1.05 14.625 0.825005C14.1 0.600005 13.425 0.450005 12.525 0.450005C11.625 0.375005 11.325 0.375 9 0.375Z" fill="white"/>
<path d="M9 4.5752C6.525 4.5752 4.57498 6.52519 4.57498 9.00019C4.57498 11.4752 6.525 13.4252 9 13.4252C11.475 13.4252 13.425 11.4752 13.425 9.00019C13.425 6.52519 11.475 4.5752 9 4.5752ZM9 11.8502C7.425 11.8502 6.15001 10.5752 6.15001 9.00019C6.15001 7.42519 7.425 6.1502 9 6.1502C10.575 6.1502 11.85 7.42519 11.85 9.00019C11.85 10.5752 10.575 11.8502 9 11.8502Z" fill="white"/>
<path d="M13.575 5.47499C14.1549 5.47499 14.625 5.00489 14.625 4.425C14.625 3.8451 14.1549 3.375 13.575 3.375C12.9951 3.375 12.525 3.8451 12.525 4.425C12.525 5.00489 12.9951 5.47499 13.575 5.47499Z" fill="white"/>
</svg>
