<svg width="14" height="14" viewBox="0 0 14 14" fill="none" xmlns="http://www.w3.org/2000/svg">
<path d="M0.475 4.75H3.25V13.75H0.475V4.75ZM1.9 0.25C2.8 0.25 3.55 1 3.55 1.9C3.55 2.8 2.8 3.55 1.9 3.55C1 3.55 0.25 2.8 0.25 1.9C0.25 1 1 0.25 1.9 0.25Z" fill="white"/>
<path d="M5.05 4.7499H7.75V5.9499C8.125 5.2749 9.025 4.5249 10.375 4.5249C13.225 4.5249 13.75 6.3999 13.75 8.7999V13.7499H10.975V9.3999C10.975 8.3499 10.975 6.9999 9.55 6.9999C8.125 6.9999 7.9 8.1249 7.9 9.3249V13.7499H5.125V4.7499H5.05Z" fill="white"/>
</svg>
