<svg width="16" height="14" viewBox="0 0 16 14" fill="none" xmlns="http://www.w3.org/2000/svg">
<path d="M15.875 2.1248C15.275 2.3498 14.675 2.5748 14 2.6498C14.675 2.2748 15.2 1.59981 15.425 0.849805C14.825 1.22481 14.075 1.52481 13.4 1.59981C12.8 0.999805 11.975 0.549805 11.075 0.549805C9.275 0.549805 7.85 1.9748 7.85 3.7748C7.85 3.9998 7.85 4.29981 7.925 4.52481C5.225 4.37481 2.825 3.0998 1.25 1.1498C0.95 1.5998 0.8 2.1998 0.8 2.7998C0.8 3.9248 1.4 4.89981 2.225 5.4998C1.7 5.4998 1.175 5.3498 0.725 5.1248C0.725 5.1248 0.725 5.12481 0.725 5.19981C0.725 6.77481 1.85 8.0498 3.35 8.3498C3.05 8.4248 2.825 8.4998 2.525 8.4998C2.3 8.4998 2.15 8.4998 1.925 8.4248C2.3 9.6998 3.5 10.6748 4.925 10.6748C3.8 11.5748 2.45 12.0248 0.875 12.0248C0.65 12.0248 0.35 12.0248 0.125 11.9498C1.55 12.8498 3.275 13.3748 5.075 13.3748C11 13.3748 14.3 8.42481 14.3 4.14981C14.3 3.99981 14.3 3.84981 14.3 3.69981C14.9 3.32481 15.425 2.7998 15.875 2.1248Z" fill="white"/>
</svg>
