<svg width="20" height="14" viewBox="0 0 20 14" fill="none" xmlns="http://www.w3.org/2000/svg">
<path d="M19.225 3.25019C19.225 3.25019 19.075 1.97519 18.475 1.37519C17.725 0.625191 16.975 0.625186 16.6 0.550186C13.975 0.325186 10.075 0.325195 10.075 0.325195C10.075 0.325195 6.17503 0.325186 3.55003 0.550186C3.17503 0.625186 2.35003 0.625191 1.67503 1.37519C1.15003 1.97519 0.925034 3.25019 0.925034 3.25019C0.925034 3.25019 0.775024 4.75019 0.775024 6.25019V7.67519C0.775024 9.17519 0.925034 10.6752 0.925034 10.6752C0.925034 10.6752 1.07503 11.9502 1.67503 12.5502C2.42503 13.3002 3.32502 13.3002 3.77502 13.3752C5.27502 13.5252 10.15 13.6002 10.15 13.6002C10.15 13.6002 14.125 13.6002 16.75 13.3752C17.125 13.3002 17.95 13.3002 18.625 12.5502C19.15 11.9502 19.375 10.6752 19.375 10.6752C19.375 10.6752 19.525 9.17519 19.525 7.67519V6.25019C19.375 4.75019 19.225 3.25019 19.225 3.25019ZM8.05003 9.4002V4.1502L13.15 6.7752L8.05003 9.4002Z" fill="white"/>
</svg>
